<?xml version="1.0" encoding="utf-8"?><svg viewBox="0 0 147 57" xmlns="http://www.w3.org/2000/svg" xmlns:xlink="http://www.w3.org/1999/xlink"><style>:root>svg{display:none}:root>svg:target{display:block}</style><svg fill="none" viewBox="0 0 134 26" id="images--eyetelligence" xmlns="http://www.w3.org/2000/svg"><path d="M91.982 22.014c-1.296 0-2.574-.384-3.466-1.254l.75-.951c.852.708 1.764.991 2.696.991 1.48 0 2.777-.85 2.777-2.509v-1.538c-.507.931-1.56 1.599-2.837 1.599-2.27 0-3.872-1.72-3.872-4.37 0-2.388 1.54-4.492 3.912-4.492 2.29 0 2.878 1.517 2.878 1.517V9.49c.71 0 1.277.566 1.277 1.274v7.284c-.02 2.732-1.865 3.966-4.115 3.966zm.082-11.25c-1.723 0-2.676 1.518-2.676 3.157 0 1.861.973 3.217 2.716 3.217 1.601 0 2.696-1.538 2.696-3.177 0-1.72-1.115-3.197-2.736-3.197zM36.14 13.981c.04 1.78 1.136 3.157 2.98 3.157 1.257 0 2.088-.445 2.858-1.154l.871.85c-.77.81-1.966 1.538-3.75 1.538-2.675 0-4.296-1.942-4.296-4.532 0-2.287 1.6-4.33 4.195-4.33 2.19 0 3.507 1.457 3.912 3.358.122.587-.344 1.113-.932 1.113H36.14zm2.777-3.257c-1.56 0-2.493.971-2.716 2.185h5.29c-.202-1.113-1.074-2.185-2.574-2.185zM47.491 20.01c-.385 1.053-1.034 1.903-2.33 1.903-.508 0-.893-.06-1.298-.223v-1.254c.304.162.588.242.953.242 1.013 0 1.297-.708 1.6-1.537l.386-.992-3.162-8.397h1.44l2.533 6.617 2.432-6.617h1.399L47.49 20.011zM53.47 13.981c.041 1.78 1.136 3.157 2.98 3.157 1.257 0 2.088-.445 2.858-1.154l.872.85c-.79.81-1.966 1.538-3.75 1.538-2.676 0-4.297-1.942-4.297-4.532 0-2.287 1.601-4.33 4.196-4.33 2.189 0 3.506 1.457 3.911 3.358.122.587-.344 1.113-.932 1.113h-5.837zm2.778-3.257c-1.561 0-2.494.971-2.717 2.185h5.29c-.182-1.113-1.074-2.185-2.573-2.185zM65.085 18.19c-1.5 0-2.453-.587-2.453-2.246v-4.958h-1.236V9.752h1.236V5.847h1.338v3.905h1.581v1.234h-1.58v4.917c0 .648.344 1.032 1.155 1.032h.445v1.234s-.445.02-.486.02zM68.267 13.981c.041 1.78 1.136 3.157 2.98 3.157 1.257 0 2.088-.445 2.858-1.154l.872.85c-.77.81-1.967 1.538-3.75 1.538-2.676 0-4.298-1.942-4.298-4.532 0-2.287 1.602-4.33 4.196-4.33 2.19 0 3.507 1.457 3.912 3.358.122.587-.344 1.113-.932 1.113h-5.838zm2.777-3.257c-1.56 0-2.493.971-2.716 2.185h5.29c-.202-1.113-1.074-2.185-2.574-2.185zM76.942 18.13V5.867h1.338v12.261h-1.338zM80.875 18.13V5.867h1.338v12.261h-1.338zM84.685 7.628V5.666h.385a.95.95 0 01.953.95v1.012h-1.338zm0 10.501V9.753h1.338v8.356h-1.338v.02zM99.32 13.981c.04 1.78 1.135 3.157 2.98 3.157 1.256 0 2.087-.445 2.858-1.154l.871.85c-.79.81-1.966 1.538-3.749 1.538-2.677 0-4.298-1.942-4.298-4.532 0-2.287 1.601-4.33 4.196-4.33 2.189 0 3.507 1.457 3.912 3.358.122.587-.344 1.113-.932 1.113H99.32zm2.777-3.257c-1.561 0-2.493.971-2.716 2.185h5.29c-.203-1.113-1.074-2.185-2.574-2.185zM113.711 18.13v-5.342c0-1.194-.669-2.044-1.966-2.044-1.561 0-2.412 1.376-2.412 2.55v4.835h-1.338v-7.426c0-.525.426-.95.953-.95h.385v1.214c.507-.91 1.5-1.457 2.615-1.457 1.885 0 3.101 1.214 3.101 3.055v5.564h-1.338zM121.028 18.372c-2.614 0-4.256-1.963-4.256-4.451 0-2.408 1.743-4.411 4.155-4.411 1.906 0 2.98.971 3.588 1.76l-1.014.79c-.547-.709-1.337-1.296-2.513-1.296-1.723 0-2.858 1.477-2.858 3.096 0 1.902 1.196 3.278 2.838 3.278 1.196 0 2.027-.587 2.736-1.538l.973.708c-.77 1.133-2.068 2.064-3.649 2.064zM127.211 13.981c.04 1.78 1.135 3.157 2.979 3.157 1.257 0 2.088-.445 2.858-1.154l.872.85c-.771.81-1.966 1.538-3.75 1.538-2.675 0-4.297-1.942-4.297-4.532 0-2.287 1.601-4.33 4.196-4.33 2.189 0 3.506 1.457 3.911 3.358.122.587-.344 1.113-.932 1.113h-5.837zm2.777-3.257c-1.561 0-2.494.971-2.717 2.185h5.291c-.203-1.113-1.074-2.185-2.574-2.185z" fill="#323232"/><path d="M15.148 0C6.37 0 0 4.654 0 13.05 0 20.76 7.239 26 14.95 26 23.058 26 30 20.658 30 12.848 30 4.553 22.86 0 15.148 0zm2.406 20.86c-4.655 0-8.994-2.488-8.994-6.17 0-4.007 3.827-6.212 9.113-6.212 4.654 0 8.954 2.165 8.954 6.13-.02 3.703-4.201 6.253-9.073 6.253z" fill="url(#apaint0_radial_1_479)"/><defs><radialGradient id="apaint0_radial_1_479" cx="0" cy="0" r="1" gradientUnits="userSpaceOnUse" gradientTransform="matrix(14.2691 0 0 11.4599 15.053 13.012)"><stop offset=".002" stop-color="#323232" stop-opacity="0"/><stop offset=".999" stop-color="#888"/></radialGradient></defs></svg><svg fill="none" viewBox="0 0 87 38" id="images--foxo" xmlns="http://www.w3.org/2000/svg"><path d="M63.66 12.151h-8.435l-4.327 6.77-4.399-6.77h-8.87l8.616 12.374-8.471 12.3h8.289c.327-.509 1.054-1.6 2.145-3.275 1.09-1.674 1.89-2.911 2.363-3.675l4.545 6.95h8.834c-.364-.545-3.308-4.73-8.834-12.591l8.543-12.083z" fill="#888"/><path d="M28.03 11.57c-7.016 0-12.687 5.677-12.687 12.7 0 7.024 5.671 12.701 12.688 12.701s12.688-5.677 12.688-12.7c0-7.024-5.671-12.702-12.688-12.702zm0 18.741a6.023 6.023 0 01-6.034-6.04 6.023 6.023 0 016.035-6.042 6.023 6.023 0 016.035 6.041c0 3.312-2.69 6.041-6.035 6.041z" fill="#888"/><path d="M16.87 12.115h-5.382v-1.893c0-1.237.328-2.11.982-2.583a3.593 3.593 0 012.254-.765c.836 0 1.564.073 2.254.255V.942C16.251.578 15.051.396 13.38.396c-2.945 0-5.272.874-6.944 2.62-1.672 1.748-2.509 4.077-2.509 6.952v2.147H0v6.369h3.926v18.414h7.563V18.484h3.562a12.405 12.405 0 011.818-2.875v-3.494zM81.22 23.689c1.926.728 4.362.218 5.67-1.165.183-.218.11-.545-.108-.655-1.236-.618-2.072-1.674-2.763-2.875-.11-.218-.255-.4-.364-.618a5.919 5.919 0 001.673-.182c-.328.073-.8-.073-1.346-.364.4-.073.691-.182.691-.182-.4.145-1.309-.4-2.181-1.128l-.073-.073c-2.181-2.038-5.562-4.185-10.07-4.185-4.509 0-9.199 3.384-11.016 7.751-.51.91-1.346 2.184-2.218 2.184 0 0 1.018.11 1.563-.182-.218.983-.69 3.348-.654 3.821l1.563-2.838c-.436.837-1.272 3.13-.145 6.113.145-1.164.581-2.292.581-2.292-.254 1.965-.072 3.166.328 4.294a8.24 8.24 0 001.345 2.22c2.472 2.657 6.071 4.258 9.998 4.003h.036c6.144-.4 11.161-5.35 11.67-11.463.037-.546.073-1.238.037-1.747 0 0-1.418.764-3.163.582-1.527-.182-3.236-1.42-3.6-1.747 0 .037 0 .073.037.073.036.073.036.146.073.218.036.073.036.182.072.255.037.11.037.182.073.291 0 .073.036.146.036.219.037.29.073.582.073.873 0 3.348-2.727 6.078-6.071 6.078-3.345 0-6.072-2.73-6.072-6.078v.036c0-1.6.618-3.093 1.636-4.185l.036-.036c.328-.328.691-.655 1.091-.91l.037-.036s.036 0 .036-.037c.073-.036.109-.073.182-.109.072-.036.109-.073.181-.11h.037l.436-.218c.036 0 .036-.036.073-.036.727-.327 1.527-.473 2.363-.473.182 0 .364 0 .545.036.618.037 1.236.219 1.818.437.036 0 .036 0 .073.037.182.072.327.145.509.254 0 0 .036 0 .036.037.364.218.727.473 1.055.727.254.292.545.728.69 1.383.037-.109.546-.655-1.127-3.13a1.738 1.738 0 00-.145-.29c.836 1.71 3.417 4.913 4.762 5.422zm.618-1.82c-.291-.51-.4-1.091-.364-1.128.509.182 1.018.364 1.563.582.255.11.51-.145.436-.4-.181-.91-.363-1.929-.327-1.965.436.619 1.454 2.22 3.09 3.057.255.11.255.51 0 .619-2.544 1.419-5.526.946-7.162-1.238 1.746.619 2.145.764 2.545.764.182.037.291-.145.219-.29zM82.746 14.664h.4v-1.492h.582v-.4h-1.563v.4h.581v1.492zM84.382 13.427l.51 1.237h.327l.509-1.237v1.237h.4V12.77h-.582l-.473 1.274-.545-1.274h-.546v1.893h.4v-1.237z" fill="#888"/></svg><svg fill="none" viewBox="0 0 130 33" id="images--hst" xmlns="http://www.w3.org/2000/svg"><path d="M84.616 11.472h-1.71V8.53h-2.533v2.943h-1.72V4.424h1.72v2.798h2.533V4.424h1.71v7.048zM87.54 11.472h-1.714V4.424h1.714v7.048zM94.575 10.6c-.264.291-.651.525-1.161.703a5.063 5.063 0 01-1.675.266c-.934 0-1.68-.282-2.24-.847-.558-.565-.857-1.35-.896-2.358l-.005-.61c0-.693.124-1.299.373-1.815a2.73 2.73 0 011.063-1.196c.463-.28 1-.42 1.606-.42.889 0 1.578.201 2.068.604.493.4.78 1 .862 1.796h-1.656c-.058-.393-.186-.674-.382-.842-.196-.168-.473-.252-.833-.252-.43 0-.764.181-.999.542-.235.362-.354.878-.358 1.55v.426c0 .703.121 1.232.363 1.587.245.352.629.528 1.151.528.448 0 .78-.098 1-.295V8.873H91.66V7.706h2.915v2.895zM101.537 11.472h-1.71V8.53h-2.533v2.943h-1.72V4.424h1.72v2.798h2.533V4.424h1.71v7.048zM82.333 18.238a.692.692 0 00-.27-.58c-.176-.14-.488-.283-.935-.432a9.069 9.069 0 01-1.098-.43c-.924-.45-1.386-1.066-1.386-1.85 0-.39.114-.734.343-1.03.232-.301.558-.533.98-.698a3.81 3.81 0 011.42-.252c.513 0 .972.09 1.377.271.408.181.725.44.95.775.226.332.338.713.338 1.142h-1.714c0-.287-.09-.51-.27-.668-.176-.158-.416-.237-.72-.237-.307 0-.55.068-.73.203a.61.61 0 00-.264.509c0 .18.098.345.294.493.196.146.54.297 1.033.455.493.155.898.323 1.215.504.771.439 1.156 1.044 1.156 1.815 0 .617-.235 1.1-.705 1.453-.47.351-1.115.527-1.935.527a3.922 3.922 0 01-1.573-.305c-.467-.206-.82-.487-1.058-.842a2.2 2.2 0 01-.353-1.235h1.725c0 .378.098.657.294.838.199.178.52.266.965.266.284 0 .508-.06.671-.179a.601.601 0 00.25-.513zM87.359 17.488l-.706.765v1.859h-1.719v-7.048h1.72v3.107l.597-.895 1.539-2.213h2.126l-2.41 3.118 2.41 3.93h-2.038l-1.519-2.623zM93.184 20.112h-1.715v-7.048h1.715v7.048zM96.099 18.805h2.993v1.307H94.38v-7.048h1.72v5.74zM101.536 18.805h2.994v1.307h-4.713v-7.048h1.719v5.74zM84.253 23.015h-2.14v5.736h-1.72v-5.736H78.29v-1.312h5.962v1.312zM87.633 26.263h-.93v2.488h-1.72v-7.048h2.807c.846 0 1.507.185 1.984.556.477.372.715.896.715 1.574 0 .49-.1.897-.303 1.22-.2.322-.513.584-.941.784l1.49 2.841v.073h-1.843l-1.259-2.488zm-.93-1.312h1.087c.327 0 .572-.084.735-.252.166-.17.25-.408.25-.711 0-.304-.084-.541-.25-.712-.167-.174-.412-.261-.735-.261h-1.088v1.936zM95.58 27.434h-2.357l-.412 1.317h-1.837l2.617-7.048h1.616l2.636 7.048h-1.847l-.416-1.317zm-1.945-1.312h1.533l-.77-2.444-.763 2.444zM100.199 28.751h-1.714v-7.048h1.714v7.048zM107.351 28.751h-1.709l-2.528-4.386v4.386h-1.72v-7.048h1.72l2.523 4.386v-4.386h1.714v7.048zM110.271 28.751h-1.714v-7.048h1.714v7.048zM117.424 28.751h-1.71l-2.528-4.386v4.386h-1.719v-7.048h1.719l2.523 4.386v-4.386h1.715v7.048zM124.351 27.88c-.264.29-.651.524-1.161.702a5.062 5.062 0 01-1.675.266c-.934 0-1.681-.282-2.239-.847-.559-.565-.858-1.35-.897-2.358l-.005-.61c0-.694.125-1.299.373-1.815.248-.52.602-.918 1.063-1.196.464-.28.999-.42 1.607-.42.888 0 1.577.2 2.067.604.493.4.781.999.862 1.796h-1.656c-.058-.394-.186-.674-.382-.842-.196-.168-.473-.252-.833-.252-.431 0-.764.18-.999.542-.235.362-.354.878-.358 1.55v.425c0 .704.121 1.233.363 1.588.245.352.629.528 1.151.528.448 0 .781-.099 1-.296v-1.093h-1.196v-1.167h2.915v2.895z" fill="#888"/><path fill-rule="evenodd" clip-rule="evenodd" d="M122.918 10.468a.28.28 0 00-.084.2v8.027a.285.285 0 01-.287.283h-12.756a.285.285 0 01-.287-.283V6.09c0-.157.128-.284.287-.284h12.781c.076 0 .148-.03.202-.083l.574-.566a.283.283 0 00-.203-.484h-14.501a.285.285 0 00-.287.284v14.87c0 .157.129.284.287.284h15.05a.285.285 0 00.286-.283v-9.726c0-.253-.309-.379-.489-.2l-.573.566z" fill="#888"/><path d="M111.439 10.864l2.097-1.488a.434.434 0 01.593.087l2.238 2.892a.432.432 0 00.65.037L128.739.405a.434.434 0 01.559-.05l.332.234c.201.142.24.42.086.611l-13.131 16.22a.433.433 0 01-.678-.01l-4.56-5.944a.421.421 0 01.092-.602zM71.522 0H2.867C1.283 0 0 1.268 0 2.833v27.334C0 31.732 1.283 33 2.867 33H71.52c1.584 0 2.867-1.268 2.867-2.833V2.833C74.388 1.268 73.105 0 71.521 0z" fill="#888"/><path d="M26.438 28.61h-5.936V18.391H11.71v10.217H5.74V4.142h5.97v9.713h8.792V4.142h5.936v24.467zM42.305 22.106c0-.863-.312-1.535-.935-2.017-.612-.482-1.695-.98-3.248-1.496-1.554-.515-2.824-1.013-3.81-1.495-3.208-1.557-4.813-3.697-4.813-6.42 0-1.355.397-2.548 1.19-3.58.806-1.041 1.94-1.848 3.402-2.419 1.462-.583 3.106-.874 4.932-.874 1.78 0 3.373.314 4.779.941 1.417.628 2.517 1.524 3.299 2.689.782 1.154 1.173 2.476 1.173 3.966h-5.952c0-.997-.312-1.77-.935-2.32-.612-.548-1.446-.823-2.5-.823-1.066 0-1.91.236-2.534.706-.612.46-.919 1.048-.919 1.765 0 .627.34 1.199 1.02 1.714.681.504 1.877 1.03 3.59 1.58 1.711.537 3.117 1.12 4.217 1.747 2.675 1.524 4.013 3.625 4.013 6.302 0 2.14-.816 3.82-2.449 5.041-1.632 1.222-3.871 1.832-6.717 1.832-2.007 0-3.826-.353-5.46-1.058-1.62-.718-2.845-1.692-3.673-2.925-.816-1.243-1.224-2.671-1.224-4.285h5.986c0 1.311.34 2.28 1.02 2.907.692.617 1.809.925 3.35.925.987 0 1.764-.208 2.33-.622.579-.426.868-1.02.868-1.781zM70.077 8.696h-7.431v19.913h-5.97V8.696H49.38V4.142h20.697v4.554z" fill="#fff"/></svg><svg fill="none" viewBox="0 0 147 20" id="images--oxy" xmlns="http://www.w3.org/2000/svg"><g clip-path="url(#dclip0_1_505)" fill="#888"><path d="M42.152.694h-9.276l7.87 9.517-13.492 9.788h8.995l7.87-5.981 5.06 5.981h9.276l-8.433-9.788L63.515.694h-9.276l-7.59 5.438L42.152.694z"/><path d="M72.23 13.746L63.233.423l8.714.272 5.06 7.885L85.44.695h8.995l-15.46 13.051L77.288 20h-6.746l1.686-6.254zM99.214.423L93.311 5.86h17.457a1.088 1.088 0 010 2.175h-9.867l-4.779 4.35h12.502a.952.952 0 010 1.904h-14.47L88.251 20h20.509a8.115 8.115 0 007.603-5.278l.701-1.877a1.951 1.951 0 00-1.828-2.634 2.904 2.904 0 002.812-2.177l.994-3.845a3.013 3.013 0 00-2.917-3.766H99.214zM126.199.423l-5.903 5.438h17.457a1.088 1.088 0 010 2.175h-9.867l-4.779 4.35h12.502a.951.951 0 110 1.904h-14.47L115.236 20h20.509a8.115 8.115 0 007.603-5.278l.701-1.877a1.951 1.951 0 00-1.828-2.634 2.904 2.904 0 002.812-2.177l.994-3.845A3.012 3.012 0 00143.11.423h-16.911z"/><path fill-rule="evenodd" clip-rule="evenodd" d="M1.707 17.217c.6.56 1.282 1 2.068 1.34 3.566 1.515 7.29 1.47 11.1 1.422l.129-.001c1.489 0 3.106-.224 4.55-.58 1.581-.397 3.02-.831 4.466-1.58 1.472-.763 2.653-1.78 3.723-3.021.638-.741 1.078-1.58 1.468-2.46.878-2.039 1.675-5.365.889-7.382l-.044-.11c-.193-.488-.394-.998-.721-1.37-.703-.78-1.51-1.48-2.544-1.96a13.075 13.075 0 00-3.35-1.08c-1.554-.276-4.41-.528-7.238-.4-2.3.103-4.7.382-6.907 1.04-1.776.49-3.158 1.343-4.674 2.3-.682.42-1.178.98-1.675 1.56-.737.713-1.321 1.66-1.695 2.6C.46 9.56.189 11.47.01 13.597c-.125 1.208.86 2.812 1.696 3.62zM12.109 5.755c-1.034.18-1.986.46-2.875 1-1.883 1.11-2.275 3.582-2.275 5.5 0 .48.642 1.361 1.096 1.521 3.4 1.154 8.468 1.173 11.83.06.744-.24 1.344-.6 1.881-1.12 1.091-1.092 1.758-2.948 1.758-4.46 0-1.161-.703-2.121-1.861-2.341-3.042-.575-6.51-.69-9.554-.16z"/></g><defs><clipPath id="dclip0_1_505"><path fill="#fff" d="M0 0h147v20H0z"/></clipPath></defs></svg><svg fill="none" viewBox="0 0 56 57" id="images--walker" xmlns="http://www.w3.org/2000/svg"><g clip-path="url(#eclip0_1_535)" fill="#888"><path d="M46.934 10.624c-.027 0-.082-.041-.096-.11-.027-.096.014-.178.124-.192.082-.014.123.041.137.11.028.096 0 .165-.165.192zM40.38 27.085c-.027-.028-.068-.069-.068-.097.014-.082.069-.11.138-.068.027.013.054.082.04.11-.013.027-.068.04-.11.055zM20.967 13.427c.014-.027.027-.082.069-.096.082-.027.123.014.137.096 0 .042-.027.097-.055.11-.069 0-.137-.014-.151-.11zM8.12 14.39c-.027.054-.069.068-.082.027-.014-.028-.014-.069-.014-.11 0-.014.027-.028.041-.028.055.028.069.055.055.11zM55.88 25.023c-.028.055-.07.069-.11.041-.028-.014-.042-.055-.07-.082.042-.014.083-.042.11-.042.028 0 .042.055.07.083zM34.033 12.163c-.027-.014-.055-.028-.082-.055.014-.014.027-.042.041-.042l.083.042a.192.192 0 00-.042.055z"/><path d="M19.057 13.66c.028-.508.275-.892.509-1.277 1.374-2.212 2.748-4.438 4.122-6.65 1.085-1.759 2.184-3.504 3.27-5.262.37-.591.865-.605 1.264-.014 1.319 2.02 2.638 4.04 3.943 6.045 1.704 2.61 3.421 5.235 5.125 7.846l4.781 7.337c1.196 1.84 2.405 3.668 3.6 5.496.412.632.426 1.305.041 1.95-1.964 3.284-3.957 6.568-5.935 9.852l-1.649 2.72c-.343.564-.824.591-1.182.042a985.797 985.797 0 01-3.187-4.905l-3.998-6.183c-1.237-1.91-2.474-3.834-3.724-5.744l-3.998-6.141a276.4 276.4 0 01-2.734-4.218c-.124-.248-.152-.591-.248-.893zM.096 13.111c-.165-.645.261-1.099.55-1.566 2.13-3.449 4.287-6.897 6.43-10.36.192-.302.357-.604.563-.893.289-.385.728-.385 1.003.014.715 1.072 1.415 2.157 2.13 3.243 1.236 1.896 2.487 3.805 3.723 5.702l3.422 5.276c1.305 2.02 2.624 4.025 3.943 6.045.893 1.374 1.786 2.748 2.68 4.136.563.865 1.14 1.731 1.703 2.61.37.577.398 1.223.055 1.787a470.437 470.437 0 01-3.394 5.619c-1.236 2.047-2.46 4.108-3.696 6.155-.206.358-.412.701-.66 1.045-.288.412-.728.412-.989-.014-.989-1.58-1.978-3.174-2.967-4.754-1.333-2.157-2.666-4.3-3.999-6.458l-4.286-6.925c-1.416-2.28-2.845-4.575-4.26-6.856C1.47 15.983.88 15.062.33 14.114c-.165-.288-.22-.645-.33-.975.014-.014.055-.028.096-.028zM55.316 12.452c.041.577-.165 1.044-.453 1.511-1.745 2.858-3.462 5.743-5.194 8.615-.687 1.14-1.387 2.28-2.088 3.421-.371.605-.825.605-1.21.014-1.882-2.872-3.778-5.743-5.66-8.615l-1.896-2.885c-.412-.646-.412-1.306-.028-1.938 1.951-3.187 3.916-6.347 5.881-9.535.495-.81.99-1.621 1.484-2.418.055-.083.11-.179.165-.261.343-.481.81-.481 1.14 0 .563.797 1.1 1.593 1.663 2.39 1.525 2.212 3.05 4.41 4.575 6.623.48.7.99 1.36 1.429 2.088.151.275.124.66.192.99zM12.009 49.398c-.179.756-.33 1.43-.495 2.103-.275 1.223-.55 2.445-.838 3.668-.178.756-.714 1.168-1.484 1.154-.398 0-.81-.013-1.181-.123-.22-.069-.481-.316-.55-.536a24.97 24.97 0 01-.536-2.226c-.275-1.319-.522-2.638-.783-3.957-.124-.632-.261-1.278-.371-1.91-.055-.343.082-.48.426-.494.453 0 .92.013 1.374 0 .275-.014.398.137.426.384.192 1.306.37 2.597.563 3.902.151 1.003.316 2.006.55 3.023.082-.316.165-.646.233-.962.385-1.745.756-3.503 1.14-5.248.124-.55.344-.729.894-.729h1.333c.412 0 .645.165.741.564.207.865.385 1.731.578 2.597.274 1.25.563 2.514.92 3.778.055-.316.11-.632.151-.948.179-1.182.357-2.377.522-3.559l.33-2.267c.055-.44.165-.535.618-.535h1.196c.37 0 .522.192.453.535-.316 1.567-.618 3.133-.934 4.7l-.577 2.885c-.165.838-.55 1.14-1.402 1.14-.33 0-.673.014-.989-.069-.77-.206-.962-.865-1.113-1.538l-1.154-5.112c.041-.055.014-.096-.041-.22zM31.821 52.489v3.119c0 .59-.082.687-.66.687h-1.058c-.302 0-.453-.124-.453-.454V44.314c0-.303.151-.44.44-.44h1.195c.44 0 .55.124.55.55v6.457c.137-.15.22-.233.288-.33.783-1.044 1.553-2.088 2.336-3.132.179-.234.385-.357.7-.344.51.028 1.031 0 1.54.014.11 0 .274.055.316.124.04.082-.028.247-.097.33a189.198 189.198 0 01-2.967 3.627c-.179.22-.179.357-.014.59 1.017 1.36 2.02 2.735 3.023 4.109.164.22.082.412-.179.426-.66.014-1.333.027-1.992-.014-.165-.014-.344-.179-.454-.33-.728-1.017-1.429-2.06-2.143-3.091-.083-.124-.179-.248-.275-.385-.041-.014-.069 0-.096.014z"/><path d="M38.732 52.435c-.165 1.058.536 2.006 1.539 2.02 1.044.013 2.075-.055 3.119-.097.48-.027.55.014.55.481 0 .289-.014.577 0 .852.013.275-.124.371-.371.426-1.333.316-2.693.261-4.026.151-1.223-.096-2.171-.824-2.666-1.992a4.886 4.886 0 01-.357-1.58c-.041-.92-.041-1.855.082-2.762.22-1.676 1.54-2.83 3.243-2.954.962-.069 1.896 0 2.734.536.962.618 1.457 1.525 1.622 2.61.082.591.068 1.21.082 1.814.014.385-.096.495-.48.495h-5.071zm3.325-1.58c0-.756-.178-1.415-.852-1.786-.55-.303-1.154-.303-1.69.027-.645.385-.852 1.017-.81 1.772 1.126-.013 2.226-.013 3.352-.013zM23.316 55.733a5.05 5.05 0 00-.48.248c-.894.48-1.883.426-2.817.288-.88-.137-1.443-.742-1.677-1.649-.192-.783-.192-1.552.124-2.28.399-.92 1.223-1.306 2.157-1.43.742-.095 1.498-.095 2.254-.123.247 0 .357-.082.33-.33-.014-.165 0-.343 0-.508-.028-.756-.372-1.127-1.114-1.14-.7-.014-1.415.027-2.13.055-.26.013-.521.04-.782.054-.289.028-.426-.096-.426-.384v-.852c0-.248.096-.399.33-.44.466-.082.947-.192 1.415-.206.879-.014 1.772-.069 2.624.069 1.443.233 2.267 1.333 2.28 2.885.014 1.924 0 3.847 0 5.757 0 .412-.123.536-.535.536h-.99c-.33.014-.577-.083-.563-.55zm-.11-3.448c-.618 0-1.195-.055-1.758.013-.88.11-1.347 1.306-.838 2.034a.7.7 0 00.33.22c.741.247 1.442.027 2.115-.289.069-.027.138-.151.138-.233.027-.578.013-1.14.013-1.745zM26.421 50.044v-5.66c0-.427.11-.537.523-.537h1.126c.44 0 .55.11.55.536v11.212c0 .604-.069.673-.66.673h-.989c-.44 0-.55-.11-.55-.55v-5.674zM47.058 47.557c.55-.178 1.086-.37 1.621-.55.014 0 .028 0 .028-.013.838-.151.962-.055.962.783 0 .179-.014.37 0 .55.013.316-.11.425-.426.48-.605.11-1.196.275-1.786.413-.275.068-.344.233-.344.494.014 1.979 0 3.957 0 5.936 0 .522-.096.618-.632.618-.37 0-.728.014-1.1 0-.356-.014-.466-.137-.466-.48v-8.272c0-.371.096-.467.467-.467h.99c.576.014.59.027.686.508z"/></g><defs><clipPath id="eclip0_1_535"><path fill="#fff" d="M0 0h56v57H0z"/></clipPath></defs></svg></svg>